<svg width="234" height="175" viewBox="0 0 234 175" fill="none" xmlns="http://www.w3.org/2000/svg">
<path d="M182.645 165.37H54.7054L54.7631 151.956C54.9091 118.016 82.3053 90.0484 116.624 89.4712C116.995 89.465 117.366 89.4619 117.738 89.4618H117.738C125.461 89.4561 133.122 90.8171 140.359 93.4805C164.642 102.423 180.941 125.144 182.026 150.745L182.645 165.37Z" fill="url(#paint0_linear_0_24)"/>
<path d="M233.574 165.37H0.0834656V165.892H233.574V165.37Z" fill="#2F2E41"/>
<path d="M116.509 105.376L122.146 109.43L127.783 157.068H141.108L136.496 102.842L118.046 95.7469L116.509 105.376Z" fill="#2F2E41"/>
<path d="M92.9339 90.1724C92.9339 90.1724 91.3964 107.403 97.5463 107.91C103.696 108.416 127.271 102.842 127.271 102.842L138.546 142.371L155.458 133.755C155.458 133.755 145.208 89.1588 139.058 86.6249C132.908 84.091 112.409 79.0232 112.409 79.0232L97.5463 81.5571L92.9339 90.1724Z" fill="#2F2E41"/>
<path d="M129.833 156.054C129.833 156.054 126.758 167.71 128.808 168.723C130.041 169.333 131.239 170.009 132.396 170.75V168.723C132.396 168.723 134.958 171.257 134.958 173.284C134.958 175.311 148.796 175.818 148.796 173.284C148.796 170.75 148.283 167.71 145.721 166.189C143.158 164.669 140.083 156.054 140.083 156.054H129.833Z" fill="#2F2E41"/>
<path d="M144.696 135.276L145.721 144.905L149.308 150.986L158.02 141.357L151.358 130.715L144.696 135.276Z" fill="#2F2E41"/>
<path d="M152.896 144.905C152.896 144.905 154.783 138.524 156.658 139.18C158.533 139.837 165.708 146.425 165.708 146.425L170.833 149.466C170.833 149.466 181.083 150.479 178.008 153.52C174.933 156.561 163.658 160.615 158.533 158.588C153.408 156.561 152.383 156.054 152.383 156.054L150.846 157.067L144.696 155.547L145.721 144.905C145.721 144.905 147.258 149.466 152.896 144.905Z" fill="#2F2E41"/>
<path d="M110.359 26.8249C116.869 26.8249 122.146 21.6063 122.146 15.1689C122.146 8.73152 116.869 3.51298 110.359 3.51298C103.849 3.51298 98.5713 8.73152 98.5713 15.1689C98.5713 21.6063 103.849 26.8249 110.359 26.8249Z" fill="#9F616A"/>
<path d="M102.928 22.0104C102.928 22.0104 103.953 32.6528 100.878 32.6528C97.8026 32.6528 101.39 45.8291 109.59 45.8291C117.79 45.8291 120.865 30.1189 120.865 30.1189C120.865 30.1189 115.227 28.0918 116.252 21.5037C117.277 14.9155 102.928 22.0104 102.928 22.0104Z" fill="#9F616A"/>
<path d="M102.111 31.841L97.8026 33.6664L86.11 38.5581C85.6386 38.7553 85.2442 39.0979 84.9858 39.5349C84.7274 39.9718 84.6186 40.4796 84.6759 40.9826L89.0902 79.7834C89.0902 79.7834 84.4777 89.4122 91.6526 89.919L92.6776 93.4665L100.878 83.8376L131.627 82.8241L132.14 33.6664L118.07 28.1686C118.07 28.1686 116.156 38.6309 102.111 31.841Z" fill="#3F3D56"/>
<path d="M87.8089 40.0012L85.915 39.4661C85.7027 39.4061 85.4799 39.3913 85.2613 39.4228C85.0428 39.4542 84.8335 39.5311 84.6472 39.6485C84.4609 39.7658 84.3019 39.9209 84.1808 40.1034C84.0596 40.286 83.9789 40.4919 83.9442 40.7076L78.9184 71.8813C78.5264 74.1899 78.9017 76.5619 79.988 78.6418C81.5409 81.5492 84.766 84.1861 91.3964 81.0504L96.0088 48.1096L87.8089 40.0012Z" fill="#3F3D56"/>
<path d="M126.246 32.9062L132.396 33.9198L149.308 57.2317L150.846 61.2859L160.583 58.2452C160.583 58.2452 160.07 62.8062 165.195 62.2995C165.195 62.2995 159.046 79.0232 146.233 73.9554C133.421 68.8876 129.321 53.6842 129.321 53.6842L126.246 32.9062Z" fill="#3F3D56"/>
<path d="M133.421 43.042L110.359 33.9197L109.334 36.9605L120.096 46.0825L133.421 43.042Z" fill="#CCCCCC"/>
<path d="M103.262 15.912C103.697 15.797 103.761 15.2255 103.776 14.7801C103.854 12.3953 105.306 9.94818 107.615 9.25392C108.5 9.0137 109.428 8.96323 110.335 9.10588C111.63 9.27643 112.88 9.68891 114.019 10.3213C114.621 10.6556 115.21 11.0582 115.892 11.1603C116.343 11.2277 118.293 11.7884 118.742 11.8674C119.728 12.0408 120.644 12.9133 121.59 12.5886C122.496 12.278 122.696 11.119 122.718 10.1717C122.768 8.0136 121.111 5.02671 119.652 3.42125C118.544 2.20293 116.877 1.64054 115.247 1.34811C113.343 1.04557 111.413 0.929497 109.486 1.00157C106.878 1.04757 104.197 1.24667 101.845 2.36277C99.4924 3.47887 97.5166 5.70018 97.4039 8.27763C97.3804 8.81454 97.4364 9.35369 97.3908 9.8892C97.2794 11.1956 96.5779 12.3755 96.2488 13.6455C96.0136 14.5773 95.9784 15.5476 96.1456 16.4937C96.3128 17.4398 96.6786 18.3407 97.2195 19.1384C98.0925 20.4088 101.583 21.562 101.533 23.0971C102.164 22.4507 100.676 21.8 101.307 21.1536C101.59 20.9402 101.79 20.6373 101.874 20.2955C101.958 19.9538 101.921 19.5938 101.769 19.2757L101.099 16.6915C100.976 16.2184 100.856 15.7062 101.041 15.2534C101.759 13.4984 102.536 16.1036 103.262 15.912Z" fill="#2F2E41"/>
<path d="M109.334 36.9604L99.5964 74.4621L137.521 87.6385L159.558 69.3943L173.395 28.3453L150.846 44.5622L109.334 36.9604Z" fill="#F2F2F2"/>
<path d="M111.193 41.0231L111.062 41.5131L147.962 51.1419L148.092 50.652L111.193 41.0231Z" fill="#E4E4E4"/>
<path d="M110.168 43.557L110.037 44.047L146.937 53.6758L147.067 53.1859L110.168 43.557Z" fill="#E4E4E4"/>
<path d="M109.655 46.091L109.525 46.5809L146.424 56.2097L146.555 55.7198L109.655 46.091Z" fill="#E4E4E4"/>
<path d="M109.143 48.6248L109.012 49.1148L145.912 58.7436L146.042 58.2537L109.143 48.6248Z" fill="#E4E4E4"/>
<path d="M108.63 51.1587L108.5 51.6487L145.399 61.2775L145.53 60.7876L108.63 51.1587Z" fill="#E4E4E4"/>
<path d="M108.118 53.6927L107.987 54.1826L144.887 63.8114L145.017 63.3215L108.118 53.6927Z" fill="#E4E4E4"/>
<path d="M107.605 56.2265L107.475 56.7165L144.374 66.3453L144.505 65.8554L107.605 56.2265Z" fill="#E4E4E4"/>
<path d="M107.093 58.7604L106.962 59.2504L143.862 68.8792L143.992 68.3893L107.093 58.7604Z" fill="#E4E4E4"/>
<path d="M106.58 61.2944L106.45 61.7843L143.349 71.4131L143.48 70.9232L106.58 61.2944Z" fill="#E4E4E4"/>
<path d="M93.7073 64.5464C93.7073 64.5464 105.234 57.7385 110.359 62.2995C115.484 66.8605 95.4963 73.4486 95.4963 73.4486L93.7073 64.5464Z" fill="#9F616A"/>
<path d="M81.1465 67.8741L96.0088 62.2995C96.0088 62.2995 93.4464 71.9283 98.5713 72.4351L91.3964 81.0504C91.3964 81.0504 77.0466 81.0504 81.1465 67.8741Z" fill="#3F3D56"/>
<path d="M120.256 67.6661L139.978 74.2388L135.311 84.2989L115.589 77.7264L120.256 67.6661Z" fill="#E4E4E4"/>
<path d="M155.202 46.336L170.064 35.1866L165.964 48.8699L150.589 60.019L155.202 46.336Z" fill="#CCCCCC"/>
<path d="M162.734 53.7359L147.872 64.8847L148.182 65.2885L163.044 54.1397L162.734 53.7359Z" fill="#E4E4E4"/>
<path d="M161.709 59.3105L146.847 70.4593L147.157 70.8631L162.019 59.7143L161.709 59.3105Z" fill="#E4E4E4"/>
<path d="M163.658 62.8063C163.658 62.8063 176.47 55.2046 168.27 52.1639C160.07 49.1232 160.07 60.7792 160.07 60.7792C160.07 60.7792 159.558 63.313 163.658 62.8063Z" fill="#9F616A"/>
<path opacity="0.1" d="M88.5777 45.8291L88.0652 65.5937L96.0088 63.3519L89.6026 63.5663L88.5777 45.8291Z" fill="#2C2C29"/>
<path d="M32.6546 156.432C34.2567 162.288 39.7441 165.915 39.7441 165.915C39.7441 165.915 42.6341 160.047 41.032 154.191C39.43 148.334 33.9426 144.708 33.9426 144.708C33.9426 144.708 31.0526 150.575 32.6546 156.432Z" fill="#8985A8"/>
<path d="M35.0087 155.173C39.4048 159.405 39.9417 165.91 39.9417 165.91C39.9417 165.91 33.3513 165.554 28.9552 161.322C24.5591 157.091 24.0222 150.586 24.0222 150.586C24.0222 150.586 30.6127 150.941 35.0087 155.173Z" fill="#3F3D56"/>
<path d="M53.3865 90.5052C55.5718 90.5052 57.3434 88.7534 57.3434 86.5925C57.3434 84.4315 55.5718 82.6797 53.3865 82.6797C51.2011 82.6797 49.4296 84.4315 49.4296 86.5925C49.4296 88.7534 51.2011 90.5052 53.3865 90.5052Z" fill="url(#paint1_linear_0_24)"/>
<path d="M155.866 8.81732C158.051 8.81732 159.823 7.06551 159.823 4.90455C159.823 2.74358 158.051 0.991776 155.866 0.991776C153.68 0.991776 151.909 2.74358 151.909 4.90455C151.909 7.06551 153.68 8.81732 155.866 8.81732Z" fill="url(#paint2_linear_0_24)"/>
<path d="M185.276 97.0468C187.461 97.0468 189.233 95.295 189.233 93.1341C189.233 90.9731 187.461 89.2213 185.276 89.2213C183.09 89.2213 181.319 90.9731 181.319 93.1341C181.319 95.295 183.09 97.0468 185.276 97.0468Z" fill="url(#paint3_linear_0_24)"/>
<defs>
<linearGradient id="paint0_linear_0_24" x1="226.742" y1="187.44" x2="5.96578" y2="139.108" gradientUnits="userSpaceOnUse">
<stop stop-color="#92CAA4"/>
<stop offset="1" stop-color="#1E5263"/>
</linearGradient>
<linearGradient id="paint1_linear_0_24" x1="53.3865" y1="82.6797" x2="53.3865" y2="90.5052" gradientUnits="userSpaceOnUse">
<stop stop-color="#F5EC55"/>
<stop offset="1" stop-color="#F5DB55"/>
</linearGradient>
<linearGradient id="paint2_linear_0_24" x1="155.866" y1="0.991776" x2="155.866" y2="8.81732" gradientUnits="userSpaceOnUse">
<stop stop-color="#F5EC55"/>
<stop offset="1" stop-color="#F5DB55"/>
</linearGradient>
<linearGradient id="paint3_linear_0_24" x1="185.276" y1="89.2213" x2="185.276" y2="97.0468" gradientUnits="userSpaceOnUse">
<stop stop-color="#F5EC55"/>
<stop offset="1" stop-color="#F5DB55"/>
</linearGradient>
</defs>
</svg>
