<svg width="23" height="18" viewBox="0 0 23 18" fill="none" xmlns="http://www.w3.org/2000/svg">
<path d="M20.25 0H2.25C1.0125 0 0.01125 1.0125 0.01125 2.25L0 15.75C0 16.9875 1.0125 18 2.25 18H20.25C21.4875 18 22.5 16.9875 22.5 15.75V2.25C22.5 1.0125 21.4875 0 20.25 0ZM19.8 4.78125L11.8462 9.75375C11.4862 9.97875 11.0138 9.97875 10.6538 9.75375L2.7 4.78125C2.41875 4.60125 2.25 4.2975 2.25 3.97125C2.25 3.2175 3.07125 2.7675 3.7125 3.16125L11.25 7.875L18.7875 3.16125C19.4288 2.7675 20.25 3.2175 20.25 3.97125C20.25 4.2975 20.0813 4.60125 19.8 4.78125Z" fill="#92CAA4"/>
</svg>
